<svg xmlns="http://www.w3.org/2000/svg" viewBox="0 0 512 512"><path d="M308.2 364.5l79.2-144.2c11.7-21.7 17.9-46.2 17.9-70.9C405.3 67 338.3 0 256 0S106.7 67 106.7 149.3c0 24.7 6.2 49.2 17.9 71l79.2 144.2c-69.9 4.4-182.5 19.8-182.5 72.9C21.3 509.9 232 512 256 512s234.7-2.1 234.7-74.7C490.7 384.3 378.1 368.9 308.2 364.5zM170.7 149.3C170.7 102.3 208.9 64 256 64s85.3 38.3 85.3 85.3c0 47.1-38.3 85.3-85.3 85.3S170.7 196.4 170.7 149.3zM256 469.3c-104.9 0-173.7-19.2-189.8-32 14.5-11.6 72.1-28.3 160.3-31.4l20.1 36.6c1.9 3.4 5.4 5.5 9.3 5.5 3.9 0 7.5-2.1 9.3-5.5l20.1-36.6c88.2 3.1 145.8 19.9 160.3 31.4C429.7 450.2 360.9 469.3 256 469.3z"/></svg>